#!OML:ASF H:\Terrain\Patient Classification 1\Walking\liu\liu.ASF
:FULLY-SPECIFIED
:DEGREES
133
root 9.00546 15.8832 -18.5706 6.3928 8.64565 6.11952
lowerback -8.2432 -4.19217 -7.10169
upperback -1.19302 -5.01692 1.857
thorax 4.15006 -2.61735 5.31392
lowerneck -20.0803 -5.67487 -13.2646
upperneck 20.4623 -6.5946 11.277
head 10.7437 -2.76552 5.28701
rclavicle 5.17461e-014 -1.59028e-014
rhumerus -47.8982 5.13757 -82.3518
rradius 31.4444
rwrist -18.7101
rhand -25.8973 -35.1427
rfingers 7.12502
rthumb 0.644928 -65.1215
lclavicle 5.17461e-014 -1.59028e-014
lhumerus -32.8727 -22.3464 98.821
lradius 32.8069
lwrist 4.07631
lhand -13.5907 -23.998
lfingers 7.12502
lthumb 12.5237 5.60671
rfemur -42.04 6.59503 7.13481
rtibia 29.0787
rfoot -16.8983 -10.1335
rtoes -22.993
lfemur 21.9314 1.38423 -25.4912
ltibia 6.36111e-015
lfoot -12.1168 -2.97048
ltoes -7.68344
134
root 8.98438 15.8904 -18.3943 6.33258 8.88729 5.95452
lowerback -8.10844 -4.24847 -6.87239
upperback -1.09205 -5.12129 1.87828
thorax 4.17847 -2.6698 5.1975
lowerneck -20.2878 -5.67413 -13.0201
upperneck 20.211 -6.58579 11.1309
head 10.6748 -2.75102 5.18262
rclavicle 3.47873e-016 1.43125e-014
rhumerus -48.0299 5.26738 -82.4012
rradius 31.5209
rwrist -18.5164
rhand -26.6987 -34.0092
rfingers 7.12502
rthumb -0.129038 -63.9889
lclavicle 3.47873e-016 1.43125e-014
lhumerus -32.912 -21.1807 98.5686
lradius 31.8579
lwrist 3.486
lhand -13.2319 -23.773
lfingers 7.12502
lthumb 12.8697 5.81017
rfemur -41.932 5.6688 7.96564
rtibia 29.7281
rfoot -14.0314 -10.2915
rtoes -23.2957
lfemur 22.5832 1.4374 -24.9156
ltibia 9.54166e-015
lfoot -11.3074 -3.47856
ltoes -6.59616
135
root 8.95685 15.8975 -18.2221 6.31765 9.05478 5.61872
lowerback -7.94892 -4.22275 -6.52792
upperback -1.0881 -5.13436 2.02184
thorax 4.07859 -2.66971 5.164
lowerneck -19.9971 -5.77976 -13.3972
upperneck 19.7694 -6.68056 11.3798
head 10.4983 -2.80198 5.31267
rclavicle 2.88486e-014 2.3059e-014
rhumerus -48.1851 5.29395 -82.3392
rradius 31.4999
rwrist -18.4253
rhand -30.4768 -29.0632
rfingers 7.12502
rthumb -3.7779 -59.0095
lclavicle 2.88486e-014 2.3059e-014
lhumerus -33.0934 -20.1055 98.6593
lradius 30.6359
lwrist 2.80667
lhand -13.4195 -23.9283
lfingers 7.12502
lthumb 12.6888 5.66622
rfemur -41.9771 5.19065 8.74643
rtibia 30.4999
rfoot -11.7351 -10.3492
rtoes -20.4361
lfemur 23.1321 1.58559 -24.2381
ltibia 0
lfoot -10.5237 -3.32379
ltoes -10.3218
136
root 8.92559 15.8995 -18.0468 6.42062 9.20403 5.27916
lowerback -8.06308 -4.13011 -6.05306
upperback -1.07904 -5.04397 2.00523
thorax 4.09631 -2.61724 4.88497
lowerneck -19.8368 -5.89029 -13.5899
upperneck 19.5492 -6.85779 11.6903
head 10.4351 -2.86707 5.42749
rclavicle -1.81639e-014 2.46493e-014
rhumerus -48.4271 5.08803 -82.4902
rradius 31.3204
rwrist -18.7903
rhand -30.4408 -29.6101
rfingers 7.12502
rthumb -3.74318 -59.557
lclavicle -1.81639e-014 2.46493e-014
lhumerus -33.2709 -19.7235 98.6216
lradius 29.2491
lwrist 2.3436
lhand -14.2303 -24.4192
lfingers 7.12502
lthumb 11.907 5.22219
rfemur -42.0906 4.75726 9.54787
rtibia 31.3571
rfoot -10.0974 -10.4383
rtoes -19.1934
lfemur 23.4839 1.74021 -23.5394
ltibia -6.99722e-014
lfoot -9.67349 -3.15933
ltoes -12.9907
137
root 8.89696 15.8934 -17.8679 6.46804 9.15544 5.09106
lowerback -8.1651 -3.99807 -5.73678
upperback -1.01863 -4.88463 1.89993
thorax 4.15926 -2.53461 4.61046
lowerneck -20.1298 -5.92752 -13.4251
upperneck 19.4986 -6.9598 11.8543
head 10.4871 -2.87339 5.44161
rclavicle 3.13086e-015 5.56597e-015
rhumerus -48.6427 4.96208 -82.777
rradius 30.9554
rwrist -18.7553
rhand -27.3977 -32.6149
rfingers 7.12502
rthumb -0.804229 -62.5931
lclavicle 3.13086e-015 5.56597e-015
lhumerus -33.3812 -19.1489 98.3472
lradius 27.9781
lwrist 1.93811
lhand -14.4087 -24.5712
lfingers 7.12502
lthumb 11.735 5.08012
rfemur -42.2369 4.21501 10.3068
rtibia 32.3767
rfoot -8.72225 -10.0632
rtoes -20.6453
lfemur 23.9081 2.06842 -22.9682
ltibia 9.54166e-015
lfoot -8.84987 -3.33619
ltoes -12.9619
138
root 8.87098 15.8804 -17.6989 6.50414 9.00495 4.92221
lowerback -7.99621 -3.786 -5.47086
upperback -1.06476 -4.6347 1.87976
thorax 3.96188 -2.40001 4.48624
lowerneck -20.2228 -5.99908 -13.6063
upperneck 19.4648 -7.07583 12.2026
head 10.5321 -2.89832 5.58359
rclavicle -1.13804e-014 -7.15625e-015
rhumerus -48.8167 4.73336 -82.8187
rradius 30.601
rwrist -18.0845
rhand -26 -32.9992
rfingers 7.12502
rthumb 0.545735 -62.9782
lclavicle -1.13804e-014 -7.15625e-015
lhumerus -33.7632 -17.8006 98.0991
lradius 27.1467
lwrist 1.42653
lhand -13.7743 -24.2631
lfingers 7.12502
lthumb 12.3467 5.35238
rfemur -42.5241 3.58136 11.0829
rtibia 33.5577
rfoot -7.40816 -9.12106
rtoes -21.9959
lfemur 24.3403 2.49333 -22.4231
ltibia 1.59028e-014
lfoot -7.77318 -3.52497
ltoes -13.4486
139
root 8.84725 15.8665 -17.5336 6.54803 8.92219 4.97153
lowerback -7.78176 -3.71435 -5.46231
upperback -1.08916 -4.55139 1.86194
thorax 3.80422 -2.3541 4.48731
lowerneck -20.1579 -5.99956 -13.6516
upperneck 19.3959 -7.08514 12.2844
head 10.502 -2.89879 5.61884
rclavicle 4.4155e-014 7.15625e-015
rhumerus -48.7702 4.77721 -82.8735
rradius 30.4631
rwrist -17.978
rhand -26.6543 -30.5173
rfingers 7.12502
rthumb -0.0862209 -60.497
lclavicle 4.4155e-014 7.15625e-015
lhumerus -33.8007 -15.2125 97.2654
lradius 26.2465
lwrist 0.54385
lhand -6.22562 -18.5785
lfingers 7.12502
lthumb 19.6155 10.4519
rfemur -42.7152 2.9669 11.5231
rtibia 34.7188
rfoot -6.4396 -7.96264
rtoes -22.0893
lfemur 24.7923 2.8335 -22.1156
ltibia 2.54444e-014
lfoot -6.18696 -3.60299
ltoes -13.6086
